<svg width="28" height="29" viewBox="0 0 28 29" fill="none" xmlns="http://www.w3.org/2000/svg">
<path fill-rule="evenodd" clip-rule="evenodd" d="M8.80079 23.307C9.63379 23.307 10.3116 23.9837 10.3116 24.8167C10.3116 25.6497 9.63379 26.3275 8.80079 26.3275C7.96779 26.3275 7.29112 25.6497 7.29112 24.8167C7.29112 23.9837 7.96779 23.307 8.80079 23.307ZM21.9611 23.307C22.7953 23.307 23.4731 23.9837 23.4731 24.8167C23.4731 25.6497 22.7953 26.3275 21.9611 26.3275C21.1281 26.3275 20.4515 25.6497 20.4515 24.8167C20.4515 23.9837 21.1281 23.307 21.9611 23.307ZM3.81236 3.54085L6.23902 3.96085C6.62986 4.02969 6.92736 4.35402 6.96119 4.75069L7.23536 8.01852L8.25485 8.01896C8.42121 8.01903 8.58581 8.01911 8.74866 8.01918L10.6204 8.02007C10.7695 8.02014 10.9171 8.02022 11.0629 8.02029L13.1296 8.02143C13.2594 8.0215 13.3877 8.02158 13.5144 8.02166L14.9626 8.02258C15.0774 8.02266 15.1906 8.02274 15.3025 8.02281L16.5762 8.02375C16.6768 8.02383 16.776 8.02391 16.8739 8.02399L17.9845 8.02494C18.0718 8.02502 18.1579 8.0251 18.2427 8.02518L18.9727 8.02591C19.0501 8.02599 19.1264 8.02607 19.2014 8.02615L20.0468 8.02713C20.1127 8.02722 20.1775 8.0273 20.2412 8.02738L20.955 8.02838C21.0103 8.02846 21.0646 8.02854 21.1179 8.02863L21.5716 8.02939C21.6191 8.02947 21.6657 8.02956 21.7114 8.02964L22.2167 8.03066C22.2553 8.03075 22.2931 8.03084 22.3301 8.03092L22.641 8.0317C22.6732 8.03179 22.7047 8.03187 22.7353 8.03196L23.0687 8.03301C23.0937 8.0331 23.118 8.03319 23.1417 8.03328L23.3374 8.03408C23.3573 8.03416 23.3766 8.03425 23.3953 8.03434L23.5934 8.03542C23.6077 8.03551 23.6216 8.0356 23.635 8.03569L23.7429 8.03651C23.7536 8.0366 23.7638 8.0367 23.7736 8.03679L23.8513 8.03762C23.8588 8.03771 23.866 8.0378 23.8728 8.03789L23.9257 8.03873C23.9306 8.03882 23.9353 8.03892 23.9398 8.03901L23.9732 8.03986C23.9763 8.03995 23.9791 8.04005 23.9818 8.04014L24.006 8.04128L24.0101 8.04157C24.0215 8.04263 24.0249 8.04302 24.0249 8.04302C24.6747 8.13752 25.2464 8.47702 25.636 8.99969C26.0257 9.52119 26.189 10.164 26.0957 10.808L24.9885 18.459C24.7797 19.915 23.515 21.0129 22.045 21.0129H9.30386C7.76736 21.0129 6.46652 19.8135 6.34169 18.2794L5.27302 5.56969L3.51486 5.26635C3.03769 5.18235 2.71919 4.73085 2.80086 4.25369C2.88486 3.77652 3.34569 3.46619 3.81236 3.54085ZM8.02079 9.76892L7.38236 9.76852L8.08586 18.1359C8.13719 18.7799 8.66336 19.2629 9.30619 19.2629H22.0427C22.6505 19.2629 23.1697 18.8102 23.256 18.2094L24.3644 10.5572C24.39 10.3752 24.3445 10.1932 24.2337 10.0462C24.124 9.89802 23.963 9.80235 23.781 9.77669C23.7726 9.77701 23.7525 9.7773 23.7211 9.77757L23.5943 9.7783C23.5677 9.7784 23.5385 9.77851 23.5067 9.7786L22.8458 9.77961C22.7901 9.77965 22.7321 9.77968 22.6719 9.77971L21.118 9.77965C21.0313 9.77961 20.9429 9.77958 20.853 9.77954L19.0795 9.77846C18.9733 9.77838 18.8659 9.7783 18.7574 9.77822L17.7539 9.77742C17.6396 9.77732 17.5244 9.77722 17.4085 9.77712L16.3456 9.77619C16.2255 9.77608 16.1049 9.77597 15.9838 9.77586L15.2516 9.77519C15.1287 9.77508 15.0055 9.77496 14.882 9.77485L13.7647 9.7738C13.6401 9.77368 13.5155 9.77357 13.3908 9.77345L12.6434 9.77276C12.519 9.77264 12.3948 9.77253 12.2707 9.77241L11.5297 9.77174C11.4068 9.77163 11.2842 9.77152 11.1621 9.77141L10.0765 9.77048C9.9576 9.77038 9.83933 9.77028 9.72177 9.77019L8.34986 9.76914C8.23915 9.76907 8.12944 9.76899 8.02079 9.76892ZM20.1689 12.3309C20.6519 12.3309 21.0439 12.7229 21.0439 13.2059C21.0439 13.6889 20.6519 14.0809 20.1689 14.0809H16.9349C16.4507 14.0809 16.0599 13.6889 16.0599 13.2059C16.0599 12.7229 16.4507 12.3309 16.9349 12.3309H20.1689Z" fill="white"/>
</svg>
