<svg width="44" height="36" viewBox="0 0 44 36" fill="none" xmlns="http://www.w3.org/2000/svg">
<path d="M8.9 4.22L2 18V30C2 31.0609 2.42143 32.0783 3.17157 32.8284C3.92172 33.5786 4.93913 34 6 34H38C39.0609 34 40.0783 33.5786 40.8284 32.8284C41.5786 32.0783 42 31.0609 42 30V18L35.1 4.22C34.7688 3.55357 34.2584 2.99274 33.6259 2.60056C32.9935 2.20838 32.2642 2.00039 31.52 2H12.48C11.7358 2.00039 11.0065 2.20838 10.3741 2.60056C9.74165 2.99274 9.23115 3.55357 8.9 4.22Z" stroke="white" stroke-width="3" stroke-linecap="round" stroke-linejoin="round"/>
</svg>
