<svg width="19" height="23" viewBox="0 0 19 23" fill="none" xmlns="http://www.w3.org/2000/svg">
<path d="M18.2133 9.99925C18.1245 9.74944 17.897 9.58333 17.6427 9.58333H10.2966L14.5339 0.9315C14.6671 0.659333 14.5984 0.326472 14.369 0.137361C14.2583 0.0453611 14.1251 0 13.9925 0C13.8507 0 13.709 0.0523889 13.5952 0.15525L0.211006 12.2941C0.0187601 12.4686 -0.0505943 12.7503 0.038228 13.0001C0.12705 13.2499 0.353973 13.4167 0.608273 13.4167H7.95436L3.71705 22.0685C3.58382 22.3407 3.65257 22.6735 3.88192 22.8626C3.99265 22.9546 4.12588 23 4.2585 23C4.40026 23 4.54201 22.9476 4.65577 22.8448L18.04 10.7059C18.2328 10.5314 18.3016 10.2497 18.2133 9.99925Z" fill="white"/>
</svg>
