<svg width="25" height="24" viewBox="0 0 25 24" fill="none" xmlns="http://www.w3.org/2000/svg">
<path fill-rule="evenodd" clip-rule="evenodd" d="M12.4879 1.63916C15.1017 1.63916 17.261 3.63082 17.5273 6.17808L17.6016 6.17896C19.0516 6.17896 20.8146 7.14196 21.4096 9.84296L22.1986 15.95C22.4816 17.921 22.1276 19.502 21.1446 20.636C20.1666 21.764 18.6186 22.361 16.6676 22.361H8.31956C6.17656 22.361 4.68356 21.836 3.75456 20.757C2.82156 19.675 2.50956 18.052 2.82756 15.934L3.60356 9.90796C4.11356 7.14496 5.97856 6.17896 7.42256 6.17896C7.54722 5.02944 8.06556 3.93586 8.88786 3.11616C9.83286 2.17716 11.1359 1.63916 12.4669 1.63916H12.4879ZM17.6016 7.67896H7.42256C6.98156 7.67896 5.50756 7.85696 5.08456 10.141L4.31256 16.141C4.06156 17.824 4.25556 19.042 4.89056 19.779C5.51756 20.507 6.63956 20.861 8.31956 20.861H16.6676C17.7156 20.861 19.1466 20.652 20.0106 19.654C20.6966 18.863 20.9326 17.685 20.7126 16.152L19.9336 10.1C19.6016 8.60896 18.7256 7.67896 17.6016 7.67896ZM15.4044 10.4631C15.8184 10.4631 16.1774 10.7991 16.1774 11.2131C16.1774 11.6271 15.8644 11.9631 15.4504 11.9631H15.4044C14.9904 11.9631 14.6544 11.6271 14.6544 11.2131C14.6544 10.7991 14.9904 10.4631 15.4044 10.4631ZM9.57426 10.4631C9.98826 10.4631 10.3473 10.7991 10.3473 11.2131C10.3473 11.6271 10.0333 11.9631 9.61926 11.9631H9.57426C9.16026 11.9631 8.82426 11.6271 8.82426 11.2131C8.82426 10.7991 9.16026 10.4631 9.57426 10.4631ZM12.4849 3.13916H12.4699C11.5289 3.13916 10.6119 3.51816 9.94686 4.17916C9.40516 4.71843 9.05088 5.42736 8.93628 6.17849L16.0156 6.17877C15.7586 4.46054 14.2728 3.13916 12.4849 3.13916Z" fill="white"/>
</svg>
